<!DOCTYPE svg PUBLIC "-//W3C//DTD SVG 1.1//EN" "http://www.w3.org/Graphics/SVG/1.1/DTD/svg11.dtd">
<svg xmlns="http://www.w3.org/2000/svg" viewBox="0 0 2234 574">
<path d="M204.09 1.049C135.754 9.616 67.068 68.48 27.482 152.405-2.812 216.63-8.133 284.173 12.704 340 45.42 427.654 143.07 454.988 227 399.984 332.599 330.78 383.884 175.172 334.529 73.718 309.4 22.061 259.267-5.868 204.09 1.049m805.91.076c-15.588 1.798-32.967 7.568-46 15.271-55.52 32.819-54.205 95.144 2.57 121.75l8.788 4.118-12.429 4.374C920.078 161.72 880.254 189.765 859 219.829c-48.924 69.201-27.323 152.4 49.5 190.66 89.661 44.654 218.609 8.146 256.429-72.6 17.805-38.015 8.411-85.054-21.829-109.309-3.361-2.696-5.976-5.037-5.81-5.203.165-.166 5.455-.775 11.755-1.355 75.282-6.923 119.261-51.303 105.933-106.898-10.455-43.61-58.612-64.55-94.745-41.196-27.585 17.829-36.635 61.405-12.752 61.405 11.033 0 14.547-8.32 10.437-24.707-3.317-13.226.173-20.685 12.814-27.385 35.401-18.764 72.378 11.528 63.757 52.23-4.434 20.933-17.31 34.969-38.839 42.341-16.37 5.604-22.892 6.284-69.15 7.203-70.244 1.395-93.786 7.67-119.875 31.948-30.545 28.426-31.217 81.068-1.249 97.915 23.522 13.223 60.434 5.266 64.754-13.96 3.357-14.942-18.089-22.313-26.697-9.175-2.938 4.484-10.682 12.334-13.714 13.902-7.089 3.666-17.723.814-23.615-6.335-20.917-25.376-4.045-62.877 34.151-75.903 16.903-5.765 43.413-7.259 59.745-3.367 36.296 8.649 59.469 41.779 53.72 76.802-6.419 39.105-33.877 68.23-78.308 83.063-59.282 19.791-131.379-.25-160.736-44.681-29.601-44.801-24.322-100.624 12.997-137.43 26.397-26.035 52.184-39.382 114.624-59.328 28.006-8.946 29.582-10.383 19.049-17.36-5.027-3.33-5.893-3.311-17.346.378-26.232 8.451-48.127 8.817-61.5 1.029-40.915-23.827-19.538-91.437 33.169-104.907 26.899-6.874 45.503 1.159 60.331 26.051 8.505 14.279 14.437 18.276 22.265 15.006 12.83-5.361 11.705-20.979-2.468-34.236C1076.601 6.47 1042.933-2.674 1010 1.125m458.5-.537c-59.561 8.564-110.084 42.687-151.7 102.457-52.108 74.841-69.037 160.903-45.466 231.135 28.565 85.111 117.596 118.836 199.666 75.634 101.902-53.642 165.019-195.048 135.952-304.588-14.471-54.535-52.146-93.125-100.376-102.814C1499.495.99 1474.151-.224 1468.5.588M2051 2.063c-2.475.37-8.1 1.614-12.5 2.765-14.472 3.786-32.37 5.986-61.876 7.605-4.883.268-8.98.617-9.106.777-.44.559-3.518 10.154-3.518 10.968 0 .452 5.063.833 11.25.846 18.743.04 23.6 2.363 24.499 11.717.594 6.179-.602 10.786-15.254 58.759-6.384 20.9-13.798 45.2-16.476 54-8.341 27.408-54.132 177.351-58.11 190.285-9.983 32.455-12.054 54.145-6.322 66.215 6.116 12.881 18.063 21.113 33.645 23.183 31.575 4.194 60.221-20.056 82.615-69.934 5.261-11.72 5.362-11.249-2.399-11.249-6.42 0-6.574.062-7.627 3.083-11.725 33.636-41.575 65.137-57.543 60.728-14.801-4.087-14.881-22.223-.292-65.811 8.659-25.871 9.669-29.179 83.972-275 11.055-36.575 20.293-67.048 20.528-67.718.613-1.75-.41-1.977-5.486-1.219M199.866 16.382C136.574 33.14 85.469 125.532 67.326 256c-2.502 17.994-2.536 69.071-.056 83.97 6.458 38.796 27.82 68.126 53.599 73.59 70.437 14.93 133.275-64.295 161.059-203.06 18.364-91.722 10.977-158.485-20.323-183.668-14.936-12.017-39.878-16.239-61.739-10.45m1263.634-.725c-51.964 11.086-97.606 75.639-122.37 173.073-22.204 87.357-21.137 159.218 2.896 195.149 15.958 23.857 27.79 30.619 53.474 30.564 33.129-.072 58.437-14.63 83.611-48.098 51.545-68.526 85.123-219.629 65.827-296.225-10.843-43.046-41.909-63.324-83.438-54.463M434.456 163.49c-22 4.733-47.326 26.862-66.83 58.394-3.094 5.002-5.626 9.324-5.626 9.605 0 .281 3.099.511 6.886.511h6.886l4.08-6.867c19.252-32.406 43.417-48.205 46.729-30.552.906 4.828-1.041 11.583-36.426 126.419-17.541 56.925-31.7 103.837-31.465 104.25.785 1.375 42.948.896 44.066-.5.55-.687 4.027-11.15 7.726-23.25 31.924-104.424 60.019-161.971 97.807-200.336 23.2-23.554 45.691-26.801 51.327-7.412 3.11 10.698.561 19.878-28.121 101.26-22.916 65.022-27.979 80.359-29.6 89.667-4.869 27.964 8.049 44.897 34.105 44.707 25.896-.19 47.659-12.886 66.655-38.886 5.038-6.895 15.345-24.163 15.345-25.708 0-.436-3.284-.792-7.297-.792h-7.298l-7.952 12.149c-20.451 31.241-42.103 43.535-49.556 28.137-2.991-6.176-3.824-3.145 23.603-85.797 13.504-40.694 26.151-79.389 28.105-85.989 6.549-22.124 5.704-37.819-2.714-50.425-10.249-15.348-34.772-23.136-55.391-17.59-27.549 7.41-58.847 42.102-85.718 95.015-3.911 7.7-7.276 13.506-7.479 12.902-.203-.604 2.091-8.479 5.097-17.5 6.857-20.58 11.362-38.372 13.14-51.902 3.818-29.035-7.808-44.303-30.084-39.51m335.7-.327c-40.355 4.686-94.899 55.031-122.761 113.311-20.58 43.048-25.005 88.638-11.36 117.026 4.526 9.415 11.312 17.875 18.965 23.643 40.087 30.216 94.613 4.495 128.029-60.393L790.11 343h-14.867l-5.173 10.15c-19.112 37.495-43.584 59.107-66.826 59.015-30.076-.118-39.572-27.259-26.94-77l3.196-12.585 15.5-6.827c71.474-31.48 109.982-61.891 120.611-95.253 11.307-35.488-9.339-61.532-45.455-57.337m934.611-.04c-22.997 3.211-50.091 27.49-72.68 65.127l-2.25 3.75 7.331-.012 7.332-.012 3.309-6.023c21.336-38.843 55.098-53.186 45.787-19.453-.759 2.75-16.053 52.638-33.988 110.863C1641.674 375.588 1627 423.83 1627 424.568c0 1.076 3.874 1.341 19.602 1.341 27.769 0 23.97 2.633 31.4-21.755 32.568-106.905 64.354-171.214 102.241-206.851 19.483-18.326 39.721-21.338 46.686-6.95 5.46 11.28 3.868 17.241-30.837 115.478-19.761 55.935-24.222 69.798-26.101 81.11-4.936 29.715 14.404 47.451 45.509 41.736 27.707-5.092 49.456-23.66 67.85-57.927l3.623-6.75-7.737.047-7.736.048-7.5 11.652c-17.757 27.589-37.424 41.101-47.16 32.402-6.911-6.176-7.234-4.807 21.639-91.649 28.387-85.377 29.968-90.513 31.412-102.073 3.822-30.595-16.143-51.864-48.46-51.626-32.967.244-67.906 34.692-100.356 98.949-2.847 5.637-5.652 10.25-6.233 10.25-.61 0-.756-.739-.345-1.75 7.111-17.498 16.916-54.382 18.685-70.284 2.865-25.768-7.887-39.709-28.415-36.843m375.696-.033c-20.868 2.649-36.969 24.36-43.893 59.189-3.764 18.936-3.793 23.139-.162 23.553 6.182.705 9.592-.655 9.592-3.827 0-5.38 4.107-24.24 7.011-32.199 10.944-29.987 31.901-27.358 40.905 5.132 15.258 55.06 1.908 198.835-23.061 248.357-14.444 28.646-62.545 69.126-90.499 76.159-12.246 3.081-25.334 1.785-49.856-4.938-22.339-6.124-40.504-.671-43.055 12.924-4.555 24.281 34.814 33.864 77.796 18.936 27.662-9.607 48.533-24.105 89.242-61.991 86.889-80.864 151.969-171.86 171.405-239.663 15.124-52.759 8.758-98.293-14.262-102.026-11.12-1.803-20.678 11.556-17.721 24.768.641 2.864 3.905 10.119 7.254 16.122 12.731 22.822 14.311 36.933 7.264 64.884-8.868 35.173-38.199 87.613-72.396 129.437-8.258 10.1-10.7 12.062-9.758 7.843.276-1.238 1.929-8.282 3.673-15.654 14.278-60.36 16.8-143.679 5.529-182.608-8.662-29.917-30.463-47.513-55.008-44.398M758.5 180.828c-25.498 12.057-53.358 56.796-70.615 113.396-1.798 5.899-2.933 11.061-2.521 11.473.961.961 14.328-6.173 27.136-14.484 52.681-34.182 83.822-78.779 72.124-103.29-3.764-7.888-16.902-11.456-26.124-7.095" fill-rule="evenodd"/>
</svg>