<svg xmlns="http://www.w3.org/2000/svg" xmlns:xlink="http://www.w3.org/1999/xlink" width="500" zoomAndPan="magnify" viewBox="0 0 375 374.999991" height="500" preserveAspectRatio="xMidYMid meet" version="1.0"><defs><clipPath id="6de51e84d2"><path d="M 145.5625 163.59375 L 192.507812 163.59375 L 192.507812 211.117188 L 145.5625 211.117188 Z M 145.5625 163.59375 " clip-rule="nonzero"/></clipPath><clipPath id="61ba015261"><path d="M 170.960938 163.613281 L 167.085938 163.613281 L 145.628906 211.078125 L 149.953125 211.078125 L 152.828125 204.574219 C 156.855469 201.875 161.90625 200.222656 167.085938 200.222656 C 173.511719 200.222656 177.863281 201.847656 182.414062 204.476562 L 185.363281 211.050781 L 192.417969 211.050781 Z M 167.160156 196.746094 C 163.28125 196.746094 158.882812 197.597656 154.929688 199.773438 L 167.558594 170.964844 L 180.339844 199.773438 C 176.535156 197.746094 172.109375 196.746094 167.160156 196.746094 " clip-rule="nonzero"/></clipPath><clipPath id="022193e67b"><path d="M 18.546875 163.59375 L 65.492188 163.59375 L 65.492188 211.117188 L 18.546875 211.117188 Z M 18.546875 163.59375 " clip-rule="nonzero"/></clipPath><clipPath id="b47209c6a8"><path d="M 44 163.613281 L 40.121094 163.613281 L 18.667969 211.078125 L 22.992188 211.078125 L 25.867188 204.574219 C 29.894531 201.875 34.945312 200.222656 40.121094 200.222656 C 46.550781 200.222656 50.898438 201.847656 55.453125 204.476562 L 58.402344 211.050781 L 65.453125 211.050781 Z M 40.199219 196.746094 C 36.320312 196.746094 31.917969 197.597656 27.96875 199.773438 L 40.597656 170.964844 L 53.375 199.773438 C 49.574219 197.746094 45.171875 196.746094 40.199219 196.746094 " clip-rule="nonzero"/></clipPath><clipPath id="6b80e0551c"><path d="M 302.574219 163.589844 L 309.324219 163.589844 L 309.324219 211.078125 L 302.574219 211.078125 Z M 302.574219 163.589844 " clip-rule="nonzero"/></clipPath><clipPath id="df683bf032"><path d="M 251.835938 163.59375 L 294.75 163.59375 L 294.75 211.117188 L 251.835938 211.117188 Z M 251.835938 163.59375 " clip-rule="nonzero"/></clipPath><clipPath id="43a4bee564"><path d="M 252.535156 163.613281 L 251.910156 167.089844 L 269.863281 167.089844 L 269.863281 211.078125 L 276.617188 211.078125 L 276.617188 167.089844 L 294.597656 167.089844 L 293.972656 163.613281 Z M 252.535156 163.613281 " clip-rule="nonzero"/></clipPath><clipPath id="d25827c017"><path d="M 201.148438 163.59375 L 244 163.59375 L 244 211.117188 L 201.148438 211.117188 Z M 201.148438 163.59375 " clip-rule="nonzero"/></clipPath><clipPath id="9e500b217a"><path d="M 239.90625 202.25 L 206.519531 163.613281 L 201.320312 163.613281 L 201.320312 211.078125 L 205.34375 211.078125 L 205.34375 172.441406 L 238.730469 211.078125 L 243.90625 211.078125 L 243.90625 163.613281 L 239.90625 163.613281 Z M 239.90625 202.25 " clip-rule="nonzero"/></clipPath><clipPath id="cd73c13004"><path d="M 112.726562 163.59375 L 140.664062 163.59375 L 140.664062 211.117188 L 112.726562 211.117188 Z M 112.726562 163.59375 " clip-rule="nonzero"/></clipPath><clipPath id="ead5793668"><path d="M 119.59375 163.613281 L 112.867188 163.613281 L 112.867188 211.078125 L 139.976562 211.078125 L 140.601562 207.601562 L 119.59375 207.601562 Z M 119.59375 163.613281 " clip-rule="nonzero"/></clipPath><clipPath id="681bce6518"><path d="M 62.035156 163.59375 L 104.949219 163.59375 L 104.949219 211.117188 L 62.035156 211.117188 Z M 62.035156 163.59375 " clip-rule="nonzero"/></clipPath><clipPath id="f6c1c79a94"><path d="M 62.828125 163.613281 L 62.203125 167.089844 L 80.183594 167.089844 L 80.183594 211.078125 L 86.9375 211.078125 L 86.9375 167.089844 L 104.890625 167.089844 L 104.265625 163.613281 Z M 62.828125 163.613281 " clip-rule="nonzero"/></clipPath><clipPath id="24d5005366"><path d="M 320.097656 163.019531 L 356.386719 163.019531 L 356.386719 211.980469 L 320.097656 211.980469 Z M 320.097656 163.019531 " clip-rule="nonzero"/></clipPath><clipPath id="c6e95dd798"><path d="M 340.535156 183.894531 C 329.929688 181.71875 327.054688 179.867188 327.054688 174.917969 C 327.054688 169.738281 331.558594 166.640625 338.683594 166.640625 C 343.960938 166.640625 348.585938 167.789062 354.011719 170.890625 L 354.011719 166.089844 C 350.210938 164.363281 344.636719 163.136719 339.460938 163.136719 C 327.980469 163.136719 321.480469 168.015625 321.480469 176.617188 C 321.480469 183.96875 325.90625 187.996094 337.757812 190.246094 C 347.988281 192.195312 350.761719 194.121094 350.761719 199.074219 C 350.761719 204.949219 345.484375 208.375 336.984375 208.375 C 331.632812 208.375 326.128906 206.675781 320.328125 203.648438 L 320.328125 208.449219 C 324.128906 210.226562 331.480469 211.851562 336.984375 211.851562 C 349.3125 211.851562 356.363281 206.574219 356.363281 197.449219 C 356.363281 189.871094 352.789062 186.371094 340.558594 183.894531 " clip-rule="nonzero"/></clipPath></defs><rect x="-37.5" width="450" fill="#ffffff" y="-37.499999" height="449.999989" fill-opacity="1"/><g clip-path="url(#6de51e84d2)"><g clip-path="url(#61ba015261)"><path fill="#020304" d="M 6.164062 150.632812 L 368.769531 150.632812 L 368.769531 224.367188 L 6.164062 224.367188 Z M 6.164062 150.632812 " fill-opacity="1" fill-rule="nonzero"/></g></g><g clip-path="url(#022193e67b)"><g clip-path="url(#b47209c6a8)"><path fill="#020304" d="M 6.164062 150.632812 L 368.769531 150.632812 L 368.769531 224.367188 L 6.164062 224.367188 Z M 6.164062 150.632812 " fill-opacity="1" fill-rule="nonzero"/></g></g><g clip-path="url(#6b80e0551c)"><path fill="#020304" d="M 6.164062 150.632812 L 368.769531 150.632812 L 368.769531 224.367188 L 6.164062 224.367188 Z M 6.164062 150.632812 " fill-opacity="1" fill-rule="nonzero"/></g><g clip-path="url(#df683bf032)"><g clip-path="url(#43a4bee564)"><path fill="#020304" d="M 6.164062 150.632812 L 368.769531 150.632812 L 368.769531 224.367188 L 6.164062 224.367188 Z M 6.164062 150.632812 " fill-opacity="1" fill-rule="nonzero"/></g></g><g clip-path="url(#d25827c017)"><g clip-path="url(#9e500b217a)"><path fill="#020304" d="M 6.164062 150.632812 L 368.769531 150.632812 L 368.769531 224.367188 L 6.164062 224.367188 Z M 6.164062 150.632812 " fill-opacity="1" fill-rule="nonzero"/></g></g><g clip-path="url(#cd73c13004)"><g clip-path="url(#ead5793668)"><path fill="#020304" d="M 6.164062 150.632812 L 368.769531 150.632812 L 368.769531 224.367188 L 6.164062 224.367188 Z M 6.164062 150.632812 " fill-opacity="1" fill-rule="nonzero"/></g></g><g clip-path="url(#681bce6518)"><g clip-path="url(#f6c1c79a94)"><path fill="#020304" d="M 6.164062 150.632812 L 368.769531 150.632812 L 368.769531 224.367188 L 6.164062 224.367188 Z M 6.164062 150.632812 " fill-opacity="1" fill-rule="nonzero"/></g></g><g clip-path="url(#24d5005366)"><g clip-path="url(#c6e95dd798)"><path fill="#020304" d="M 6.164062 150.632812 L 368.769531 150.632812 L 368.769531 224.367188 L 6.164062 224.367188 Z M 6.164062 150.632812 " fill-opacity="1" fill-rule="nonzero"/></g></g></svg>