<!DOCTYPE svg PUBLIC "-//W3C//DTD SVG 1.1//EN" "http://www.w3.org/Graphics/SVG/1.1/DTD/svg11.dtd">
<svg xmlns="http://www.w3.org/2000/svg" viewBox="0 0 375 134">
<path d="M250.045 3.026c-26.986 5.693-39.571 36.908-24.003 59.535C235.976 77 257.472 82.299 278 75.369l8.5-2.869.276-15.25.276-15.25H275v29.102l-3.468 1.449c-5.488 2.293-16.116 1.857-22.032-.904-24.893-11.616-23.424-56.799 2.087-64.215 10.28-2.989 19.913-.699 27.853 6.619l4.56 4.204V5.276l-5.75-1.195c-7.875-1.636-22.805-2.195-28.205-1.055M88 40v37h11V3H88v37m44 0v37h10.952l.274-16.75.274-16.75 20.25-.271 20.25-.27V77h11V3h-11v33h-41V3h-11v37M290.872 5.661c-1.256 1.52-1.181 1.542.878.259 1.929-1.201 2.571-1.201 4.5 0 2.059 1.283 2.134 1.261.878-.259-1.756-2.124-4.5-2.124-6.256 0m2.051.589c-.677 2.214-.504 3.644.42 3.469 1.521-.288 2.653-1.916 2.032-2.921-.451-.73-2.271-1.137-2.452-.548m-2.051 5.089c1.756 2.124 4.5 2.124 6.256 0 1.256-1.52 1.181-1.542-.878-.259-1.929 1.201-2.571 1.201-4.5 0-2.059-1.283-2.134-1.261-.878.259M41.643 111.028c-9.756 2.924-11.159 14.018-2.283 18.048 7.121 3.234 15.493 1.828 19.009-3.193 6.016-8.589-4.997-18.37-16.726-14.855m93.153.069c-5.625 2.162-4.333 8.378 1.966 9.458 7.815 1.341 9.739 2.092 10.095 3.942.846 4.392-9.043 6.317-12.857 2.503-2.375-2.375-4.177-2.624-3.347-.463.816 2.127 5.648 4.463 9.232 4.463 10.831 0 13.619-9.662 3.3-11.435-7.853-1.35-9.035-1.733-9.559-3.097-1.62-4.223 7.182-5.98 11.792-2.354 3.275 2.577 4.771 1.63 1.923-1.217-2.39-2.391-8.667-3.291-12.545-1.8m34.775.474c-1.775 1.776-2.101 5.983-.537 6.95.604.373-.02 1.467-1.5 2.631-6.645 5.227.843 12.508 8.665 8.428 2.322-1.212 2.862-1.211 3.872.006.646.778 1.894 1.414 2.774 1.414 1.287 0 1.172-.427-.588-2.188l-2.188-2.187 2.047-3.313c2.375-3.843.751-4.565-1.735-.771l-1.665 2.541-2.363-2.221-2.364-2.22 2.005-2.135c4.794-5.102-1.48-11.877-6.423-6.935m81.429-.283c-5.634 2.836-2.481 9.693 4.473 9.727 3.393.016 7.675 1.896 8.243 3.619 1.401 4.254-9.334 6.013-13.398 2.195-2.864-2.69-4.466-1.533-1.703 1.231 5.377 5.377 17.385 2.893 17.385-3.596 0-2.821-2.136-4.154-8.125-5.069-5.43-.83-7.875-2.04-7.875-3.895 0-3.759 8.775-4.731 11.95-1.323 2.18 2.339 3.476 2.098 2.493-.464-1.233-3.215-9.067-4.628-13.443-2.425m27.313-.186c-7.26 2.101-9.672 10.693-4.463 15.901 7.713 7.714 23.15 3.434 23.15-6.418 0-7.973-8.68-12.378-18.687-9.483m76.187-.378c-3.049.749-4.5 2.289-4.5 4.776 0 3.091 1.791 4.322 8 5.5 7.629 1.447 9.52 3.337 6.429 6.429-2.283 2.282-8.624 1.992-11.847-.543-3.297-2.593-4.762-1.622-1.888 1.252 5.027 5.028 17.306 2.808 17.306-3.128 0-3.416-1.778-4.645-8.125-5.615-5.43-.83-7.875-2.04-7.875-3.895 0-3.639 8.765-4.735 12-1.5 2.406 2.406 3 2.495 3 .449 0-2.822-7.31-5.001-12.5-3.725M6.214 120.669c.196 6.633.678 9.799 1.536 10.083.878.291 1.25-.948 1.25-4.169V122h16v4.5c0 2.475.45 4.5 1 4.5.6 0 1-4 1-10s-.4-10-1-10c-.55 0-1 2.025-1 4.5v4.5H9v-4.5c0-3.38-.382-4.5-1.536-4.5-1.296 0-1.492 1.515-1.25 9.669m60.536-8.937 4.25.383v9.442c0 12.241 1.833 12.401 2.212.193l.288-9.25 4.5-.6c2.904-.387.954-.591-5.5-.575-5.5.013-8.088.197-5.75.407m20.464 9.018.286 9.75 8.75.289c5.571.184 8.75-.089 8.75-.75 0-.626-2.979-1.039-7.5-1.039H90v-8h6c3.333 0 6-.444 6-1s-2.667-1-6-1h-6v-6.912l7.25-.345 7.25-.346-8.786-.198-8.786-.199.286 9.75M111 121v10h7.5c4.333 0 7.5-.422 7.5-1 0-.564-2.833-1-6.5-1H113v-9c0-5.333-.407-9-1-9-.6 0-1 4-1 10m89 0c0 9.886 1.591 14.059 2.193 5.75.472-6.531 4.997-6.665 10.211-.301 2.052 2.503 4.429 4.551 5.283 4.551 1.093 0 .476-1.315-2.076-4.43-3.448-4.207-3.526-4.462-1.559-5.086 3.317-1.053 4.561-4.9 2.567-7.943-1.538-2.346-2.238-2.541-9.142-2.541H200v10m25 0v10h8.5c5 0 8.5-.412 8.5-1 0-.578-3.167-1-7.5-1H227v-8h6c3.333 0 6-.444 6-1 0-.557-2.688-1-6.063-1h-6.064l.314-3.25.313-3.25 7.5-.57 7.5-.57-8.75-.18L225 111v10m79 0c0 9.886 1.591 14.059 2.193 5.75.469-6.495 4.819-6.622 10.108-.295 2.089 2.5 4.481 4.545 5.316 4.545 1.039 0 .376-1.392-2.102-4.416-3.469-4.234-3.531-4.444-1.509-5.086 2.669-.847 4.344-4.975 3.022-7.446-1.348-2.518-3.205-3.052-10.61-3.052H304v10m25.713-9.27 4.213.381.287 9.114c.195 6.188.688 9.246 1.537 9.527.942.312 1.25-1.936 1.25-9.111v-9.526l4.25-.383c2.337-.21-.25-.383-5.75-.383s-8.104.172-5.787.381M42 112.653c-8.939 3.583-7.378 14.438 2.302 16.009 10.267 1.666 17.005-7.267 10.26-13.604-2.453-2.304-9.464-3.646-12.562-2.405m128.709-.029c-1.154 1.155-.81 4.047.623 5.237 1.842 1.529 5.004-.87 4.517-3.427-.37-1.935-3.805-3.145-5.14-1.81m31.484 3.626c.295 4.08.449 4.262 3.863 4.549 5.405.454 8.944-1.247 8.944-4.299 0-3.008-3.025-4.5-9.123-4.5h-3.992l.308 4.25m75.695-2.75c-5.93 3.222-5.801 10.942.235 14.063 6.76 3.496 16.877-.511 16.877-6.685 0-6.966-9.965-11.263-17.112-7.378m28.305 2.75c.295 4.08.449 4.262 3.863 4.549 5.405.454 8.944-1.247 8.944-4.299 0-3.008-3.025-4.5-9.123-4.5h-3.992l.308 4.25m-137.622 6.321c-2.972 2.973-1.145 6.441 3.379 6.414 5.019-.03 5.826-1.566 2.595-4.938-3.354-3.501-3.831-3.619-5.974-1.476" fill-rule="evenodd"/>
</svg>